<?xml version="1.0" encoding="UTF-8" standalone="no"?>
<svg
   xmlns:dc="http://purl.org/dc/elements/1.1/"
   xmlns:cc="http://creativecommons.org/ns#"
   xmlns:rdf="http://www.w3.org/1999/02/22-rdf-syntax-ns#"
   xmlns:svg="http://www.w3.org/2000/svg"
   xmlns="http://www.w3.org/2000/svg"
   xmlns:sodipodi="http://sodipodi.sourceforge.net/DTD/sodipodi-0.dtd"
   xmlns:inkscape="http://www.inkscape.org/namespaces/inkscape"
   viewBox="0 0 16 16"
   fill="#000"
   version="1.1"
   id="svg845"
   sodipodi:docname="close.svg"
   inkscape:version="1.0.2 (e86c870879, 2021-01-15)">
  <metadata
     id="metadata851">
    <rdf:RDF>
      <cc:Work
         rdf:about="">
        <dc:format>image/svg+xml</dc:format>
        <dc:type
           rdf:resource="http://purl.org/dc/dcmitype/StillImage" />
      </cc:Work>
    </rdf:RDF>
  </metadata>
  <defs
     id="defs849" />
  <sodipodi:namedview
     pagecolor="#ffffff"
     bordercolor="#666666"
     borderopacity="1"
     objecttolerance="10"
     gridtolerance="10"
     guidetolerance="10"
     inkscape:pageopacity="0"
     inkscape:pageshadow="2"
     inkscape:window-width="1920"
     inkscape:window-height="1057"
     id="namedview847"
     showgrid="false"
     inkscape:zoom="32"
     inkscape:cx="-6.5872839"
     inkscape:cy="3.413332"
     inkscape:window-x="1072"
     inkscape:window-y="442"
     inkscape:window-maximized="1"
     inkscape:current-layer="layer1"
     inkscape:document-rotation="0" />
  <g
     inkscape:groupmode="layer"
     id="layer2"
     inkscape:label="Layer 2"
     style="display:none">
    <rect
       style="opacity:1;fill:#00ffff;stroke-width:0"
       id="rect860"
       width="24.870968"
       height="22.419355"
       x="-2.7741935"
       y="-2.2258065" />
  </g>
  <g
     inkscape:groupmode="layer"
     id="layer1"
     inkscape:label="Layer 1"
     style="display:inline;opacity:1">
    <path
       d="m 0.293,0.293 a 1,1 0 0 1 1.414,0 L 8,6.586 14.293,0.293 a 1,1 0 1 1 1.414,1.414 L 9.414,8 l 6.293,6.293 a 1,1 0 0 1 -1.414,1.414 L 8,9.414 1.707,15.707 A 1,1 0 0 1 0.293,14.293 L 6.586,8 0.293,1.707 a 1,1 0 0 1 0,-1.414 z"
       id="path843"
       style="opacity:1;fill:#ffffff;fill-opacity:1" />
  </g>
  <g
     inkscape:groupmode="layer"
     id="layer3"
     inkscape:label="Layer 3"
     style="display:none">
    <path
       sodipodi:type="star"
       style="opacity:1;fill:#ffffff;stroke-width:0"
       id="path869"
       sodipodi:sides="4"
       sodipodi:cx="8.5161285"
       sodipodi:cy="7.6451612"
       sodipodi:r1="6.8387856"
       sodipodi:r2="1.2993693"
       sodipodi:arg1="1.5660794"
       sodipodi:arg2="2.3514775"
       inkscape:flatsided="false"
       inkscape:rounded="0.19"
       inkscape:randomized="0"
       d="M 8.5483865,14.483871 C 7.4101343,14.48924 8.4103422,9.369347 7.6016798,8.5682777 6.7930174,7.7672084 1.6827881,8.8156713 1.677419,7.6774191 1.6720498,6.5391669 6.7919427,7.5393748 7.593012,6.7307124 8.3940813,5.9220501 7.3456184,0.81182075 8.4838706,0.80645158 9.6221228,0.80108242 8.6219149,5.9209753 9.4305773,6.7220446 10.23924,7.5231139 15.349469,6.474651 15.354838,7.6129032 15.360207,8.7511554 10.240314,7.7509475 9.4392451,8.5596099 8.6381758,9.3682722 9.6866387,14.478502 8.5483865,14.483871 Z"
       transform="matrix(1.1304606,1.0706389,-1.1304606,1.0706389,7.0154057,-9.3029052)" />
    <path
       sodipodi:type="star"
       style="opacity:1;fill:#ffffff;stroke-width:0"
       id="path871"
       sodipodi:sides="4"
       sodipodi:cx="8.5161285"
       sodipodi:cy="7.6451612"
       sodipodi:r1="6.8387856"
       sodipodi:r2="1.2993693"
       sodipodi:arg1="1.5660794"
       sodipodi:arg2="2.3514775"
       inkscape:flatsided="false"
       inkscape:rounded="0.19"
       inkscape:randomized="0"
       d="M 8.5483865,14.483871 C 7.4101343,14.48924 8.4103422,9.369347 7.6016798,8.5682777 6.7930174,7.7672084 1.6827881,8.8156713 1.677419,7.6774191 1.6720498,6.5391669 6.7919427,7.5393748 7.593012,6.7307124 8.3940813,5.9220501 7.3456184,0.81182075 8.4838706,0.80645158 9.6221228,0.80108242 8.6219149,5.9209753 9.4305773,6.7220446 10.23924,7.5231139 15.349469,6.474651 15.354838,7.6129032 15.360207,8.7511554 10.240314,7.7509475 9.4392451,8.5596099 8.6381758,9.3682722 9.6866387,14.478502 8.5483865,14.483871 Z"
       transform="matrix(1.194884,1.1304606,-1.194884,1.1304606,6.959295,-10.269702)" />
    <path
       sodipodi:type="star"
       style="opacity:1;fill:#ffffff;stroke-width:0"
       id="path873"
       sodipodi:sides="4"
       sodipodi:cx="8.5161285"
       sodipodi:cy="7.6451612"
       sodipodi:r1="6.8387856"
       sodipodi:r2="1.2993693"
       sodipodi:arg1="1.5660794"
       sodipodi:arg2="2.3514775"
       inkscape:flatsided="false"
       inkscape:rounded="0.19"
       inkscape:randomized="0"
       d="M 8.5483865,14.483871 C 7.4101343,14.48924 8.4103422,9.369347 7.6016798,8.5682777 6.7930174,7.7672084 1.6827881,8.8156713 1.677419,7.6774191 1.6720498,6.5391669 6.7919427,7.5393748 7.593012,6.7307124 8.3940813,5.9220501 7.3456184,0.81182075 8.4838706,0.80645158 9.6221228,0.80108242 8.6219149,5.9209753 9.4305773,6.7220446 10.23924,7.5231139 15.349469,6.474651 15.354838,7.6129032 15.360207,8.7511554 10.240314,7.7509475 9.4392451,8.5596099 8.6381758,9.3682722 9.6866387,14.478502 8.5483865,14.483871 Z"
       transform="matrix(1.194884,1.1304606,-1.194884,1.1304606,6.959295,-10.269702)" />
  </g>
  <g
     inkscape:groupmode="layer"
     id="layer4"
     inkscape:label="Layer 4"
     style="display:none;opacity:0.422581">
    <rect
       style="fill:#ffff00;fill-opacity:1;stroke:#000000;stroke-width:0.1;stroke-miterlimit:4;stroke-dasharray:none;stroke-opacity:1"
       id="rect1485"
       x="-0.13258252"
       y="-0.044194173"
       height="16.152971"
       width="0" />
    <rect
       style="fill:#ffff00;fill-opacity:1;stroke:#000000;stroke-width:0;stroke-miterlimit:4;stroke-dasharray:none;stroke-opacity:1"
       id="rect1487"
       width="15.707"
       height="15.707"
       x="0.29300001"
       y="0.29300001" />
  </g>
</svg>
